<?xml version="1.0" encoding="utf-8"?>
<!-- Generator: Adobe Illustrator 26.1.0, SVG Export Plug-In . SVG Version: 6.00 Build 0)  -->
<svg version="1.2" baseProfile="tiny" id="Layer_1" xmlns="http://www.w3.org/2000/svg" xmlns:xlink="http://www.w3.org/1999/xlink"
	 x="0px" y="0px" viewBox="0 0 1000 1000" overflow="visible" xml:space="preserve">
<rect x="0.15" y="0.31" fill="#C8FF01" width="1000" height="1000"/>
<g>
	<path fill="#294B4D" d="M252.42,523.01c4.8,4.79,9.69,9.67,14.34,14.32c-18.37,18.67-36.68,37.27-54.99,55.87
		c-6.39-6.63-12.54-12.99-18.69-19.37c6.99-7.1,14.56-14.78,22.5-22.85c-6.78,0-13.03-0.03-19.28,0.01
		c-8.41,0.06-16.54-1.39-24.46-4.19c-30.24-10.71-49.4-41.07-46-72.92c3.49-32.64,29.11-58.44,61.72-62.14
		c37.82-4.29,71.91,21.16,77.87,58.49c2.8,17.53-0.96,33.87-10.57,48.83c-0.75,1.17-1.54,2.31-2.3,3.46
		C252.51,522.58,252.51,522.67,252.42,523.01z M211.91,481.65c6.76,7.07,13.4,13.99,20.16,21.06c0.51-0.83,0.87-1.28,1.09-1.79
		c7.57-16.96,6.66-33.32-4.59-48.29c-15.54-20.68-46.44-21.7-63.59-2.44c-9.9,11.13-12.9,24.24-10.58,38.72
		c2.68,16.72,15.51,30.51,31.98,34.2c9.34,2.09,18.85,0.97,28.29,1c0.09,0,0.18-0.22,0.4-0.52c-7.5-7.54-15.01-15.1-22.41-22.54
		C198.87,494.8,205.05,488.56,211.91,481.65z"/>
	<path fill="#294B4D" d="M317.95,548.76c-8.06,0-15.17-1.54-21.33-4.62c-6.16-3.08-10.96-7.82-14.4-14.22
		c-3.44-6.4-5.16-14.46-5.16-24.18v-54.05h27.73v49.78c0,8.06,1.69,13.96,5.07,17.69c3.38,3.73,8.15,5.6,14.31,5.6
		c4.27,0,8.06-0.95,11.38-2.84c3.32-1.89,5.96-4.74,7.91-8.53c1.96-3.79,2.93-8.53,2.93-14.22v-47.47h27.56v95.65h-26.31v-26.49
		l4.8,7.82c-3.32,6.64-8.06,11.64-14.22,15.02C332.06,547.07,325.3,548.76,317.95,548.76z"/>
	<path fill="#294B4D" d="M397.6,438.35c-5.22,0-9.42-1.48-12.62-4.44c-3.2-2.96-4.8-6.64-4.8-11.02c0-4.38,1.6-8.06,4.8-11.02
		c3.2-2.96,7.41-4.44,12.62-4.44c5.09,0,9.27,1.39,12.53,4.18c3.26,2.79,4.89,6.37,4.89,10.76c0,4.62-1.6,8.44-4.8,11.47
		C407.02,436.84,402.81,438.35,397.6,438.35z M383.73,547.33v-95.65h27.73v95.65H383.73z"/>
	<path fill="#294B4D" d="M421.24,547.33V415.42h27.73v131.91H421.24z M444.18,527.78l0.71-33.96l44.62-42.13h33.07l-42.85,43.56
		l-14.4,11.91L444.18,527.78z M492.53,547.33l-32.36-40.18l17.42-21.51l48.53,61.69H492.53z"/>
	<path fill="#294B4D" d="M522.58,473.51v-21.82h67.82v21.82H522.58z M574.22,548.79c-11.52,0-20.49-2.94-26.91-8.82
		c-6.43-5.88-9.64-14.64-9.64-26.28v-85.83h28.55v85.28c0,4.12,1.06,7.34,3.18,9.64c2.12,2.3,5,3.46,8.64,3.46
		c4.61,0,8.48-1.21,11.64-3.64l7.46,20c-2.79,2.06-6.21,3.61-10.27,4.64C582.79,548.27,578.58,548.79,574.22,548.79z"/>
	<path fill="#294B4D" d="M647.22,548.76c-10.08,0-19.05-2.13-26.93-6.4c-7.88-4.27-14.08-10.1-18.58-17.51
		c-4.51-7.41-6.76-15.85-6.76-25.33c0-9.6,2.25-18.1,6.76-25.51c4.5-7.41,10.69-13.21,18.58-17.42c7.88-4.21,16.86-6.31,26.93-6.31
		c10.19,0,19.26,2.11,27.2,6.31c7.94,4.21,14.16,10.02,18.67,17.42c4.5,7.41,6.76,15.91,6.76,25.51s-2.25,18.08-6.76,25.42
		c-4.51,7.35-10.73,13.16-18.67,17.42C666.48,546.62,657.42,548.76,647.22,548.76z M647.22,526c4.74,0,8.92-1.04,12.53-3.11
		c3.61-2.07,6.52-5.13,8.71-9.16c2.19-4.03,3.29-8.77,3.29-14.22c0-5.57-1.1-10.31-3.29-14.22c-2.19-3.91-5.1-6.9-8.71-8.98
		c-3.62-2.07-7.73-3.11-12.36-3.11c-4.62,0-8.77,1.04-12.44,3.11c-3.67,2.08-6.61,5.07-8.8,8.98c-2.19,3.91-3.29,8.65-3.29,14.22
		c0,5.45,1.09,10.19,3.29,14.22c2.19,4.03,5.13,7.08,8.8,9.16C638.63,524.96,642.72,526,647.22,526z"/>
	<path fill="#294B4D" d="M749.69,548.76c-8.06,0-15.17-1.54-21.33-4.62c-6.16-3.08-10.96-7.82-14.4-14.22
		c-3.44-6.4-5.16-14.46-5.16-24.18v-54.05h27.73v49.78c0,8.06,1.69,13.96,5.07,17.69c3.38,3.73,8.15,5.6,14.31,5.6
		c4.27,0,8.06-0.95,11.38-2.84c3.32-1.89,5.96-4.74,7.91-8.53c1.96-3.79,2.93-8.53,2.93-14.22v-47.47h27.56v95.65h-26.31v-26.49
		l4.8,7.82c-3.32,6.64-8.06,11.64-14.22,15.02C763.8,547.07,757.04,548.76,749.69,548.76z"/>
	<path fill="#294B4D" d="M815.47,547.33v-95.65h26.49v27.2l-3.73-8c2.84-6.76,7.41-11.88,13.69-15.38
		c6.28-3.49,13.93-5.24,22.93-5.24v25.78c-1.07-0.24-2.11-0.41-3.11-0.53c-1.01-0.12-1.99-0.18-2.93-0.18
		c-7.82,0-14.04,2.19-18.67,6.58c-4.62,4.39-6.93,11.14-6.93,20.27v45.16H815.47z"/>
</g>
</svg>
